SPORT: Rugby Highlights - LV= Cup
On: itv  
Date: Sunday 10th March 2013 
Time: 23:15 to 00:10 

Martin Bayfield presents the best of the action from the semi-finals as Harlequins take on Bath and Sale play Saracens for a place in the finals. 

General
Complete name                            : 2013.03.10.LV.Cup.Highights.pdtv.x264.mp4
Format                                   : MPEG-4
Format profile                           : Base Media
Codec ID                                 : isom
File size                                : 488 MiB
Duration                                 : 45mn 36s
Overall bit rate mode                    : Variable
Overall bit rate                         : 1 496 Kbps

Video
ID                                       : 1
Format                                   : AVC
Format/Info                              : Advanced Video Codec
Format profile                           : High@L3.1
Format settings, CABAC                   : Yes
Format settings, ReFrames                : 5 frames
Codec ID                                 : avc1
Codec ID/Info                            : Advanced Video Coding
Duration                                 : 45mn 36s
Bit rate                                 : 1 363 Kbps
Maximum bit rate                         : 4 075 Kbps
Width                                    : 720 pixels
Height                                   : 416 pixels
Display aspect ratio                     : 1.731
Frame rate mode                          : Constant
Frame rate                               : 25.000 fps
Color space                              : YUV
Chroma subsampling                       : 4:2:0
Bit depth                                : 8 bits
Scan type                                : Progressive
Bits/(Pixel*Frame)                       : 0.182
Stream size                              : 445 MiB (91%)
Writing library                          : x264 core 130 r2273 b3065e6

Audio
ID                                       : 2
Format                                   : AAC
Format/Info                              : Advanced Audio Codec
Format profile                           : LC
Codec ID                                 : 40
Duration                                 : 45mn 36s
Bit rate mode                            : Variable
Bit rate                                 : 128 Kbps
Maximum bit rate                         : 140 Kbps
Channel(s)                               : 2 channels
Channel positions                        : Front: L R
Sampling rate                            : 48.0 KHz
Compression mode                         : Lossy
Delay relative to video                  : 80ms
Stream size                              : 41.8 MiB (9%)
Language                                 : English

